<svg xmlns="http://www.w3.org/2000/svg" xmlns:xlink="http://www.w3.org/1999/xlink" version="1.1" width="256" height="256" viewBox="0 0 256 256" xml:space="preserve">
<g style="stroke: none; stroke-width: 0; stroke-dasharray: none; stroke-linecap: butt; stroke-linejoin: miter; stroke-miterlimit: 10; fill: none; fill-rule: nonzero; opacity: 1;" transform="translate(1.4065934065934016 1.4065934065934016) scale(2.81 2.81)">
	<path d="M 62.318 0 c 0.209 0 0.419 0 0.64 0 c 0.514 6.347 -1.909 11.089 -4.853 14.524 c -2.889 3.411 -6.845 6.718 -13.243 6.217 c -0.427 -6.256 2 -10.647 4.94 -14.073 C 52.529 3.474 57.528 0.632 62.318 0 z" style="stroke: none; stroke-width: 1; stroke-dasharray: none; stroke-linecap: butt; stroke-linejoin: miter; stroke-miterlimit: 10; fill: rgb(0,0,0); fill-rule: nonzero; opacity: 1;" transform=" matrix(1 0 0 1 0 0) " stroke-linecap="round"/>
	<path d="M 81.687 66.062 c 0 0.063 0 0.119 0 0.178 c -1.798 5.446 -4.363 10.113 -7.493 14.445 c -2.857 3.932 -6.359 9.224 -12.611 9.224 c -5.402 0 -8.991 -3.474 -14.528 -3.569 c -5.857 -0.095 -9.078 2.905 -14.433 3.66 c -0.613 0 -1.225 0 -1.826 0 c -3.932 -0.569 -7.106 -3.683 -9.418 -6.489 C 14.561 75.219 9.293 64.509 8.313 50.804 c 0 -1.344 0 -2.683 0 -4.027 c 0.415 -9.809 5.181 -17.784 11.516 -21.649 c 3.343 -2.055 7.94 -3.806 13.058 -3.023 c 2.193 0.34 4.434 1.091 6.398 1.834 c 1.861 0.715 4.189 1.984 6.394 1.917 c 1.494 -0.043 2.98 -0.822 4.486 -1.371 c 4.41 -1.593 8.734 -3.419 14.433 -2.561 c 6.849 1.035 11.71 4.079 14.713 8.774 c -5.794 3.687 -10.374 9.244 -9.592 18.733 C 70.416 58.048 75.427 63.09 81.687 66.062 z" style="stroke: none; stroke-width: 1; stroke-dasharray: none; stroke-linecap: butt; stroke-linejoin: miter; stroke-miterlimit: 10; fill: rgb(0,0,0); fill-rule: nonzero; opacity: 1;" transform=" matrix(1 0 0 1 0 0) " stroke-linecap="round"/>
</g>
</svg>