<svg version="1.2" xmlns="http://www.w3.org/2000/svg" viewBox="0 0 1567 1566" width="1567" height="1566">
	<title>pnc-logo-rev-svg</title>
	<style>
		.s0 { fill: #ffffff } 
		.s1 { fill: #f58025 } 
	</style>
	<g id="Layer">
		<ellipse id="Layer" class="s0" cx="783.1" cy="782.9" rx="749.3" ry="749.1"/>
	</g>
	<path id="Layer" fill-rule="evenodd" class="s1" d="m783.1 1565.8c-433.1 0-783.1-350-783.1-782.9 0-432.9 350-782.9 783.1-782.9 433 0 783.1 350 783.1 782.9 0 432.9-350.1 782.9-783.1 782.9zm580.2-636.5c-56.3 16.9-118.3 22.6-197.1 22.6h-529.6c-28.2 0-50.7-11.3-67.6-28.2l-78.9 140.8c-84.5 152.1-107 264.7-61.9 309.8 33.8 33.8 118.3 33.8 191.5-11.3l22.5-16.9c411.3-230.9 619.7-349.2 721.1-416.8zm-1002.7 281.7c11.2-56.4 39.4-112.7 78.8-180.3l264.8-456.2c11.3-22.5 33.8-39.4 56.3-45.1l-78.8-140.8c-84.5-146.4-174.7-225.3-236.6-208.4-50.7 11.3-84.5 84.5-84.5 169 0 473.1 0 743.5 0 861.8zm1109.8-428.1c11.2-45.1-33.8-112.6-107.1-157.7l-22.5-11.3c-405.6-236.5-614.1-354.8-721.1-411.1 33.8 39.4 73.2 90.1 112.7 157.7l264.8 461.8c16.9 28.2 16.9 50.7 11.2 73.2h163.4c174.6 0 281.7-39.4 298.6-112.6z"/>
</svg>